{
  "asset": {
    "version": "2.0",
    "generator": "Sketchfab-12.66.0",
    "extras": {
      "author": "DJMaesen (https://sketchfab.com/bumstrum)",
      "license": "CC-BY-4.0 (http://creativecommons.org/licenses/by/4.0/)",
      "source": "https://sketchfab.com/3d-models/brick-wall-1deb50eaecab4d7a8ea37cf6ae207cc3",
      "title": "brick wall (bricks2 textures)"
    }
  },
  "buffers": [
    { "byteLength": 9176, "uri": "scene.bin" }
  ],
  "bufferViews": [
    { "buffer": 0, "byteLength": 2400, "name": "floatBufferViews", "target": 34963 },
    { "buffer": 0, "byteLength": 1936, "byteOffset": 2400, "byteStride": 8, "name": "floatBufferViews", "target": 34962 },
    { "buffer": 0, "byteLength": 2904, "byteOffset": 4336, "byteStride": 12, "name": "floatBufferViews", "target": 34962 },
    { "buffer": 0, "byteLength": 1936, "byteOffset": 7240, "byteStride": 16, "name": "floatBufferViews", "target": 34962 }
  ],
  "accessors": [
    {
      "bufferView": 2,
      "componentType": 5126,
      "count": 121,
      "type": "VEC3",
      "min": [-200.0, 0.0, -200.0],
      "max": [200.0, 0.0, 200.0]
    },
    {
      "bufferView": 2,
      "byteOffset": 1452,
      "componentType": 5126,
      "count": 121,
      "type": "VEC3",
      "min": [0.0, 1.0, -0.0],
      "max": [0.0, 1.0, -0.0]
    },
    {
      "bufferView": 3,
      "componentType": 5126,
      "count": 121,
      "type": "VEC4",
      "min": [1.0, 0.0, 0.0, 1.0],
      "max": [1.0, 0.0, 0.0, 1.0]
    },
    {
      "bufferView": 1,
      "componentType": 5126,
      "count": 121,
      "type": "VEC2",
      "min": [0.0, 0.0],
      "max": [1.0, 1.0]
    },
    {
      "bufferView": 1,
      "byteOffset": 968,
      "componentType": 5126,
      "count": 121,
      "type": "VEC2",
      "min": [0.0, 0.0],
      "max": [1.0, 1.0]
    },
    {
      "bufferView": 0,
      "componentType": 5125,
      "count": 600,
      "type": "SCALAR"
    }
  ],
  "images": [
    { "uri": "textures/bricks2.jpg",        "mimeType": "image/jpeg" },
    { "uri": "textures/bricks2_normal.jpg", "mimeType": "image/jpeg" },
    { "uri": "textures/bricks2_disp.jpg",   "mimeType": "image/jpeg" }
  ],
  "samplers": [
    { "magFilter": 9729, "minFilter": 9987, "wrapS": 10497, "wrapT": 10497 }
  ],
  "textures": [
    { "sampler": 0, "source": 0 },
    { "sampler": 0, "source": 1 },
    { "sampler": 0, "source": 2 }
  ],
  "materials": [
    {
      "name": "Bricks2",
      "normalTexture": { "index": 1 },
      "pbrMetallicRoughness": {
        "baseColorTexture": { "index": 0 },
        "metallicFactor": 0.0,
        "roughnessFactor": 1.0
      }
    }
  ],
  "meshes": [
    {
      "name": "Plane_Bricks2_0",
      "primitives": [
        {
          "attributes": {
            "POSITION": 0,
            "NORMAL": 1,
            "TANGENT": 2,
            "TEXCOORD_0": 3,
            "TEXCOORD_1": 4
          },
          "indices": 5,
          "material": 0,
          "mode": 4
        }
      ]
    }
  ],
  "nodes": [
    {
      "children": [1],
      "matrix": [
        1.0, 0.0, 0.0, 0.0,
        0.0, 2.220446049250313e-16, -1.0, 0.0,
        0.0, 1.0, 2.220446049250313e-16, 0.0,
        0.0, 0.0, 0.0, 1.0
      ],
      "name": "Sketchfab_model"
    },
    {
      "children": [2],
      "matrix": [
        0.009999999776482582, 0.0, 0.0, 0.0,
        0.0, 0.0, 0.009999999776482582, 0.0,
        0.0, -0.009999999776482582, 0.0, 0.0,
        0.0, 0.0, 0.0, 1.0
      ],
      "name": "PlaneRoot"
    },
    {
      "mesh": 0,
      "name": "Plane_Bricks2_0"
    }
  ],
  "scenes": [
    { "name": "Scene", "nodes": [0] }
  ],
  "scene": 0
}
